<svg xmlns="http://www.w3.org/2000/svg" viewBox="0 0 1140 360"><path fill="#1D4380" d="M0 0h1140v360H0V0z"/><path fill="#fff" d="M191.06 117h-3.75V95.393c0-1.707.104-3.796.314-6.267h-.09c-.36 1.453-.682 2.493-.966 3.122L175.563 117h-1.842L162.74 92.428c-.314-.72-.637-1.82-.966-3.302h-.09c.12 1.288.18 3.392.18 6.312V117h-3.64V84.79h4.987l9.882 22.462c.764 1.722 1.258 3.01 1.482 3.863h.135c.643-1.767 1.16-3.084 1.55-3.953l10.084-22.37h4.717V117zm9.033-28.84c-.66 0-1.22-.225-1.685-.674-.464-.45-.696-1.018-.696-1.707 0-.69.232-1.262.696-1.72.464-.456 1.025-.684 1.685-.684.674 0 1.247.23 1.718.685.473.458.71 1.03.71 1.72 0 .658-.237 1.22-.71 1.684-.47.464-1.043.696-1.717.696zM201.89 117h-3.684V94h3.684v23zm22.307-1.056c-1.767 1.063-3.863 1.595-6.29 1.595-3.278 0-5.925-1.068-7.94-3.202-2.013-2.134-3.02-4.9-3.02-8.3 0-3.787 1.085-6.83 3.257-9.13 2.17-2.297 5.068-3.447 8.692-3.447 2.02 0 3.803.376 5.346 1.124v3.773c-1.707-1.198-3.534-1.797-5.48-1.797-2.35 0-4.28.842-5.784 2.527s-2.257 3.897-2.257 6.637c0 2.695.71 4.822 2.124 6.38 1.415 1.557 3.313 2.335 5.694 2.335 2.006 0 3.893-.667 5.66-2v3.504zm16.736-18.215c-.644-.495-1.572-.742-2.785-.742-1.572 0-2.886.74-3.942 2.224s-1.583 3.504-1.583 6.064V117h-3.684V94h3.683v4.74h.09c.524-1.618 1.325-2.88 2.403-3.786 1.078-.906 2.283-1.36 3.616-1.36.958 0 1.692.106 2.2.315v3.82zm12.783 19.81c-3.4 0-6.113-1.075-8.142-3.224-2.03-2.148-3.043-4.998-3.043-8.546 0-3.863 1.057-6.88 3.168-9.052 2.11-2.17 4.964-3.257 8.558-3.257 3.43 0 6.105 1.057 8.03 3.168 1.924 2.11 2.886 5.04 2.886 8.782 0 3.67-1.037 6.607-3.11 8.816-2.076 2.21-4.857 3.313-8.346 3.313zm.27-20.98c-2.366 0-4.238.806-5.615 2.416-1.377 1.61-2.065 3.83-2.065 6.66 0 2.726.696 4.874 2.09 6.446s3.256 2.358 5.592 2.358c2.38 0 4.21-.77 5.492-2.313 1.28-1.542 1.92-3.736 1.92-6.58 0-2.876-.64-5.092-1.92-6.65-1.283-1.558-3.113-2.336-5.494-2.336zm14.85 19.61v-3.954c2.005 1.482 4.214 2.224 6.625 2.224 3.235 0 4.853-1.078 4.853-3.234 0-.614-.14-1.134-.416-1.56-.277-.428-.65-.806-1.123-1.135-.472-.328-1.026-.624-1.662-.886-.637-.262-1.322-.535-2.055-.82-1.02-.404-1.913-.812-2.684-1.224-.77-.412-1.415-.876-1.932-1.393s-.905-1.104-1.167-1.763c-.262-.66-.393-1.43-.393-2.313 0-1.077.247-2.032.74-2.863s1.154-1.527 1.978-2.09c.823-.56 1.763-.983 2.82-1.268 1.055-.285 2.144-.428 3.267-.428 1.99 0 3.773.345 5.346 1.033v3.73c-1.69-1.11-3.638-1.663-5.84-1.663-.688 0-1.31.08-1.863.236-.554.157-1.03.378-1.426.663-.396.286-.703.626-.92 1.023-.217.397-.326.835-.326 1.314 0 .6.108 1.1.326 1.505.217.404.535.764.955 1.078.42.314.928.6 1.527.854.6.255 1.28.532 2.044.83 1.018.39 1.932.79 2.74 1.203.81.412 1.497.876 2.066 1.393.57.517 1.007 1.112 1.314 1.786.307.674.46 1.475.46 2.403 0 1.137-.25 2.125-.752 2.964-.502.84-1.172 1.535-2.01 2.09-.84.553-1.805.965-2.897 1.234-1.093.27-2.24.404-3.437.404-2.366-.003-4.418-.46-6.155-1.373zm29.696 1.37c-3.4 0-6.113-1.075-8.142-3.224-2.03-2.148-3.043-4.998-3.043-8.546 0-3.863 1.056-6.88 3.167-9.052 2.11-2.17 4.964-3.257 8.558-3.257 3.43 0 6.105 1.057 8.03 3.168 1.924 2.11 2.886 5.04 2.886 8.782 0 3.67-1.037 6.607-3.11 8.816-2.076 2.21-4.857 3.313-8.346 3.313zm.27-20.98c-2.366 0-4.238.806-5.615 2.416-1.378 1.61-2.066 3.83-2.066 6.66 0 2.726.697 4.874 2.09 6.446s3.257 2.358 5.593 2.358c2.38 0 4.21-.77 5.492-2.313 1.28-1.542 1.92-3.736 1.92-6.58 0-2.876-.64-5.092-1.92-6.65-1.282-1.558-3.112-2.336-5.493-2.336zm27.607-10.376c-.72-.404-1.536-.606-2.45-.606-2.575 0-3.862 1.625-3.862 4.874V94h5.39v3.145h-5.39V117h-3.66V97.145h-3.932V94h3.93v-3.73c0-2.41.697-4.315 2.09-5.715 1.393-1.4 3.13-2.1 5.21-2.1 1.124 0 2.015.135 2.674.404v3.324zm12.872 30.59c-.87.48-2.014.72-3.437.72-4.028 0-6.042-2.246-6.042-6.738v-13.61h-3.953V94h3.953v-5.615l3.684-1.19V94h5.795v3.145h-5.795v12.96c0 1.542.262 2.643.786 3.302.524.66 1.393.988 2.605.988.928 0 1.73-.254 2.403-.764v3.145zm41.29.226h-4.178l-3.414-9.03h-13.656l-3.212 9.03h-4.2l12.354-32.21h3.908L380.572 117zm-8.827-12.42l-5.054-13.725c-.164-.45-.33-1.168-.493-2.156h-.09c-.15.913-.322 1.63-.517 2.155l-5.01 13.724h11.165zm28.28-9.524l-13.61 18.8h13.477V117h-18.89v-1.146l13.61-18.71h-12.33V94h17.744v1.056zM422.558 117h-3.684v-3.64h-.09c-1.527 2.786-3.894 4.18-7.098 4.18-5.48 0-8.22-3.265-8.22-9.794V94h3.66v13.162c0 4.852 1.856 7.277 5.57 7.277 1.797 0 3.275-.664 4.436-1.99 1.16-1.324 1.742-3.057 1.742-5.2V94h3.684v23zm18.6-19.27c-.643-.495-1.57-.742-2.784-.742-1.572 0-2.886.74-3.942 2.224s-1.582 3.504-1.582 6.064V117h-3.684V94h3.684v4.74h.09c.524-1.618 1.325-2.88 2.403-3.786 1.08-.906 2.284-1.36 3.617-1.36.958 0 1.692.106 2.2.315v3.82zm21.656 8.69h-16.24c.06 2.562.75 4.538 2.067 5.93 1.317 1.394 3.13 2.09 5.436 2.09 2.59 0 4.97-.854 7.143-2.56v3.458c-2.022 1.468-4.695 2.2-8.02 2.2-3.25 0-5.803-1.043-7.66-3.132-1.856-2.09-2.784-5.027-2.784-8.816 0-3.58 1.014-6.495 3.043-8.75 2.028-2.252 4.547-3.38 7.557-3.38s5.338.975 6.985 2.92c1.647 1.948 2.47 4.65 2.47 8.11v1.93zm-3.773-3.12c-.015-2.127-.528-3.782-1.54-4.965-1.01-1.183-2.414-1.774-4.21-1.774-1.737 0-3.212.623-4.425 1.865-1.213 1.243-1.962 2.868-2.246 4.874h12.42zM493.5 55h-1v90h1V55z"/><path fill="#59B4D9" d="M597.026 128.48c-6.343 4.85-13.817 7.212-21.238 7.212-10.53 0-20.943-4.727-27.824-13.727-11.757-15.35-8.855-37.302 6.522-49.064 6.342-4.88 13.824-7.208 21.235-7.208 10.53 0 20.946 4.727 27.825 13.735 11.76 15.345 8.83 37.302-6.52 49.052"/><path fill="#fff" d="M590.595 106.83c2.543 3.315 7.262 3.914 10.56 1.405.172-.132.305-.29.462-.433 3.373 2.376 5.716 3.945 7.036 4.844.39-1.012.66-1.984.938-3-1.394-1.037-3.28-2.49-6.006-4.698.895-2.352.612-5.097-1.022-7.24-2.337-3.026-6.478-3.794-9.712-1.93-3.565-3.197-7.482-6.863-11.613-10.967 12.834-6.9 21.95-5.89 21.95-5.89-1.52-1.94-3.227-3.64-5.048-5.177-5.413-.836-13.82-.742-23.426 4.367l-.003-.004c-3.2-3.35-6.46-6.943-9.778-10.8-1.588.51-3.14 1.138-4.638 1.887 2.45 4.008 5.744 8.05 9.457 11.993l.025.024c-3.096 2.165-6.544 5.06-9.724 8.423-.405.433-.796.868-1.178 1.304-1.9-.398-3.898-.28-5.765.395-3.17-6.84-2.915-12.335-2.414-15.168-1.376 1.442-2.662 2.96-3.77 4.575-.828 3.38-1.063 8.258 1.38 14.135-2.828 3.7-2.96 8.946-.008 12.817.246.32.51.62.783.903-1.29 4.393-1.867 8.63-2.044 12.268l.66 1.255c1.68 2.154 3.79 3.968 5.826 5.612-.252-3.85.02-9.53 2.4-15.924 1.643.125 3.313-.134 4.877-.793.896.788 1.834 1.585 2.836 2.396 3.435 2.718 6.86 4.834 10.2 6.5-.173 1.7.253 3.465 1.356 4.927 2.358 3.047 6.727 3.616 9.777 1.287.634-.486 1.136-1.073 1.552-1.703 5.445 1.214 10.203 1.428 13.73 1.428.54 0 3.048-3.41 4.485-5.526-2.148.45-8.518 1.325-17.223-1.176-.21-.977-.612-1.927-1.257-2.773-2.21-2.9-6.254-3.526-9.267-1.587-3.026-1.64-6.195-3.698-9.463-6.287-.66-.523-1.292-1.044-1.903-1.567 1.997-3.146 2.21-7.18.445-10.572.4-.4.794-.8 1.22-1.2 3.236-3.022 6.28-5.442 9.128-7.384l-.33-.326.335.318h-.003c4.37 4.042 9.004 7.872 13.392 11.294-1.163 2.46-.98 5.46.785 7.767z"/><path fill="#55ADD3" d="M702.836 135.69c-1.725 0-3.35-.67-4.565-1.892l-28.543-28.543c-1.203-1.203-1.89-2.864-1.89-4.565 0-1.7.688-3.363 1.89-4.564l28.544-28.543c1.22-1.22 2.842-1.893 4.566-1.893 1.723 0 3.346.672 4.565 1.893l28.54 28.543c1.223 1.215 1.894 2.838 1.894 4.564s-.67 3.35-1.894 4.568l-28.538 28.54c-1.22 1.22-2.843 1.893-4.566 1.893"/><path fill="#fff" d="M721.894 95.22c-3.024 0-5.474 2.45-5.474 5.473 0 1.11.335 2.138.903 3l-10.84 10.84c-.29-.2-.6-.37-.92-.52v-27.66c1.635-.945 2.746-2.693 2.746-4.717 0-3.023-2.45-5.472-5.475-5.472-3.02 0-5.47 2.45-5.47 5.472 0 2.024 1.11 3.772 2.743 4.718v27.658c-.307.146-.608.302-.885.494l-10.854-10.854c.55-.854.878-1.866.878-2.958 0-3.023-2.45-5.472-5.47-5.472-3.025 0-5.475 2.45-5.475 5.472 0 3.023 2.45 5.472 5.474 5.472.627 0 1.22-.127 1.784-.322l11.41 11.41c-.327.767-.51 1.61-.51 2.496 0 3.518 2.854 6.37 6.372 6.37 3.52 0 6.37-2.852 6.37-6.37 0-.87-.175-1.697-.49-2.45l11.442-11.442c.55.185 1.126.308 1.737.308 3.022 0 5.472-2.45 5.472-5.472 0-3.023-2.448-5.473-5.468-5.473z"/><path opacity=".5" fill="#fff" d="M701.505 82.847l2.497-2.497 20.465 20.464-2.497 2.497z"/><path opacity=".5" fill="#fff" d="M681.116 100.75l20.465-20.465 2.5 2.498-20.466 20.466z"/><path fill="#B8D432" d="M706.566 119.75c0 2.094-1.7 3.793-3.794 3.793-2.096 0-3.793-1.698-3.793-3.793s1.696-3.793 3.792-3.793c2.093 0 3.794 1.7 3.794 3.793M705.878 81.636c0 1.68-1.362 3.044-3.044 3.044-1.68 0-3.044-1.362-3.044-3.044s1.362-3.044 3.044-3.044 3.044 1.362 3.044 3.044M686.823 100.692c0 1.68-1.365 3.044-3.044 3.044-1.682 0-3.045-1.362-3.045-3.044s1.362-3.044 3.044-3.044c1.678 0 3.043 1.363 3.043 3.044M724.937 100.692c0 1.68-1.365 3.044-3.045 3.044s-3.044-1.362-3.044-3.044 1.364-3.044 3.044-3.044 3.045 1.363 3.045 3.044"/><path opacity=".1" fill="#69c" d="M707.4 67.584c-1.218-1.22-2.84-1.893-4.564-1.893-1.723 0-3.345.673-4.564 1.894l-28.544 28.543c-1.204 1.2-1.893 2.864-1.893 4.564 0 1.702.69 3.365 1.893 4.566l16.16 16.16 30.4-44.947-8.887-8.886z"/><path fill="#3999C6" d="M803.512 75.254v50.873c0 5.282 11.823 9.564 26.405 9.564V75.255h-26.405z"/><path fill="#59B4D9" d="M829.555 135.69h.362c14.582 0 26.405-4.28 26.405-9.563V75.254h-26.767v60.436z"/><path fill="#fff" d="M856.322 75.254c0 5.282-11.823 9.563-26.405 9.563s-26.405-4.28-26.405-9.563 11.823-9.563 26.405-9.563 26.405 4.283 26.405 9.564"/><path fill="#7FBA00" d="M850.924 74.703c0 3.487-9.405 6.31-21.006 6.31s-21.008-2.823-21.008-6.31c0-3.485 9.406-6.31 21.008-6.31 11.6 0 21.006 2.825 21.006 6.31"/><path fill="#B8D432" d="M846.523 78.56c2.75-1.067 4.402-2.403 4.402-3.854 0-3.487-9.405-6.31-21.008-6.31-11.6 0-21.007 2.824-21.007 6.31 0 1.45 1.653 2.787 4.402 3.853 3.84-1.492 9.842-2.454 16.604-2.454 6.765 0 12.764.963 16.607 2.453"/><path fill="#fff" d="M846.983 116.504c-1.413 1.178-3.328 1.77-5.815 1.77h-8.298V96.63h7.87c2.48 0 4.378.452 5.684 1.39 1.223.878 1.836 2.108 1.836 3.68 0 1.25-.447 2.316-1.358 3.253-.776.775-1.71 1.31-2.858 1.624v.05c1.543.19 2.802.78 3.74 1.766.878.937 1.33 2.086 1.33 3.415.005 1.98-.716 3.53-2.13 4.696m-20.224-1.275c-2.077 2.03-4.88 3.043-8.378 3.043h-7.66V96.63h7.66c7.685 0 11.528 3.498 11.528 10.538 0 3.365-1.04 6.06-3.15 8.06"/><path fill="#3999C6" d="M817.982 100.58h-2.4v13.74h2.428c2.134 0 3.788-.667 5.012-1.947 1.172-1.28 1.765-2.988 1.765-5.148 0-2.027-.593-3.625-1.738-4.808-1.202-1.223-2.883-1.837-5.068-1.837"/><path fill="#59B4D9" d="M842.233 104.613c.586-.51.88-1.178.88-2.006 0-1.605-1.173-2.403-3.55-2.403h-1.835v5.128h2.16c.987 0 1.787-.247 2.345-.72M843.035 109.703c-.642-.478-1.516-.747-2.644-.747h-2.666v5.708h2.64c1.124 0 2.028-.266 2.696-.8.613-.535.93-1.224.93-2.134.007-.854-.313-1.548-.955-2.027"/><path fill="#A0A1A2" d="M922 127.85c0 1.4.98 2.66 2.66 2.66h64.68c1.4 0 2.66-.98 2.66-2.66V81.51h-70v46.34z"/><path fill="#7A7A7A" d="M989.34 70.87h-64.68c-1.68 0-2.66 1.26-2.66 2.66v7.98h70v-7.98c0-1.4-.98-2.66-2.66-2.66"/><path fill="#fff" d="M948.32 86.13h17.64v10.64h-17.64z"/><path fill="#FCD116" d="M948.32 100.55h17.64v10.64h-17.64zM969.32 100.55h17.64v10.64h-17.64z"/><path fill="#fff" d="M969.32 86.13h17.64v10.64h-17.64zM927.32 86.13h17.64v10.64h-17.64zM927.32 100.55h17.64v10.64h-17.64z"/><path fill="#FCD116" d="M927.32 114.83h17.64v10.64h-17.64zM948.32 114.83h17.64v10.64h-17.64zM969.32 114.83h17.64v10.64h-17.64z"/><path opacity=".2" fill="#fff" d="M924.66 70.87c-1.26 0-2.66 1.26-2.66 2.66v54.32c0 1.4 1.4 2.66 2.66 2.66h2.94l55.44-59.64h-58.38z"/></svg>