<svg xmlns="http://www.w3.org/2000/svg" viewBox="0 0 1140 360"><path fill="#56B4D9" d="M0 0h1140v360H0V0z"/><path fill="#fff" d="M163.29 114.514h-3.996l-3.266-8.637h-13.063l-3.072 8.637h-4.018l11.816-30.81h3.74l11.86 30.81zm-8.443-11.88l-4.834-13.128c-.158-.43-.315-1.117-.473-2.063h-.086c-.144.874-.308 1.562-.494 2.063l-4.79 13.127h10.677zm10.92 10.634v-4.254c.488.43 1.07.816 1.752 1.16.68.344 1.395.634 2.147.87s1.507.42 2.267.548c.76.13 1.46.193 2.105.193 2.22 0 3.877-.412 4.973-1.235s1.644-2.01 1.644-3.556c0-.83-.183-1.554-.548-2.17s-.87-1.178-1.516-1.687-1.407-.995-2.288-1.46-1.83-.957-2.847-1.473c-1.075-.544-2.078-1.096-3.01-1.654-.93-.56-1.74-1.175-2.427-1.848s-1.23-1.436-1.622-2.288c-.393-.853-.59-1.852-.59-2.997 0-1.403.308-2.625.924-3.663.616-1.038 1.425-1.895 2.428-2.567 1.002-.673 2.145-1.175 3.427-1.504 1.28-.33 2.588-.494 3.92-.494 3.036 0 5.25.364 6.64 1.095v4.06c-1.82-1.26-4.155-1.89-7.005-1.89-.788 0-1.576.082-2.363.247-.788.165-1.49.434-2.105.806-.616.372-1.117.853-1.504 1.44s-.58 1.303-.58 2.147c0 .788.146 1.468.44 2.04.293.574.727 1.097 1.3 1.57.573.472 1.27.93 2.095 1.374.823.443 1.772.93 2.847 1.46 1.103.544 2.148 1.117 3.137 1.72s1.854 1.267 2.6 1.997c.745.73 1.335 1.54 1.772 2.428.437.888.655 1.905.655 3.05 0 1.52-.298 2.805-.893 3.857-.595 1.053-1.396 1.908-2.406 2.567s-2.173 1.134-3.49 1.428c-1.318.293-2.707.44-4.168.44-.487 0-1.09-.04-1.805-.118-.716-.08-1.447-.193-2.19-.344-.746-.15-1.45-.337-2.117-.56s-1.202-.466-1.602-.738zm27.81-10.4v11.646h-3.61v-30.81h8.465c3.294 0 5.847.803 7.66 2.407 1.81 1.605 2.717 3.868 2.717 6.79s-1.007 5.313-3.02 7.176c-2.013 1.862-4.73 2.793-8.153 2.793h-4.06zm0-15.897v12.634h3.78c2.492 0 4.394-.57 5.704-1.708s1.967-2.746 1.967-4.823c0-4.067-2.406-6.102-7.22-6.102h-4.23zm21.168 28.016c-.66 0-1.22-.236-1.687-.71-.466-.472-.698-1.037-.698-1.696s.232-1.23.698-1.708c.465-.48 1.027-.72 1.687-.72.673 0 1.246.24 1.72.72s.708 1.05.708 1.708-.236 1.225-.71 1.697-1.046.71-1.718.71zm33.007-.472h-4.426L227.47 89.957c-.4-.616-.73-1.26-.987-1.934h-.13c.115.66.173 2.07.173 4.232v22.258h-3.61V83.705h4.685l15.427 24.17c.645 1.003 1.06 1.69 1.246 2.063h.086c-.145-.888-.216-2.4-.216-4.533v-21.7h3.61v30.81zm23.79 0h-16.328v-30.81h15.64v3.267h-12.03v10.25h11.13v3.243h-11.13v10.785h12.72v3.266zm23.533-27.543h-8.895v27.544h-3.61V86.97H273.7v-3.265h21.377v3.266zm36.623 26.255c-2.277 1.203-5.113 1.805-8.508 1.805-4.383 0-7.892-1.41-10.527-4.232-2.636-2.82-3.953-6.524-3.953-11.107 0-4.926 1.482-8.908 4.447-11.944s6.725-4.555 11.28-4.555c2.92 0 5.34.424 7.26 1.27v3.845c-2.205-1.23-4.64-1.848-7.304-1.848-3.538 0-6.406 1.182-8.604 3.545-2.2 2.363-3.3 5.52-3.3 9.475 0 3.753 1.028 6.742 3.084 8.97 2.055 2.228 4.75 3.34 8.09 3.34 3.093 0 5.77-.687 8.034-2.062v3.5zm14.38 1.804c-3.25 0-5.848-1.028-7.788-3.084-1.94-2.056-2.91-4.78-2.91-8.175 0-3.694 1.01-6.58 3.028-8.657s4.748-3.115 8.186-3.115c3.28 0 5.84 1.01 7.68 3.03 1.84 2.02 2.762 4.818 2.762 8.4 0 3.508-.992 6.32-2.976 8.432-1.984 2.113-4.645 3.17-7.982 3.17zm.258-20.067c-2.263 0-4.054.77-5.37 2.31-1.32 1.54-1.978 3.663-1.978 6.37 0 2.606.666 4.662 1.998 6.166s3.115 2.255 5.35 2.255c2.277 0 4.028-.737 5.253-2.213s1.836-3.573 1.836-6.295c0-2.75-.612-4.87-1.837-6.36s-2.977-2.234-5.254-2.234zm27.185 1.117c-.615-.473-1.503-.71-2.663-.71-1.504 0-2.76.71-3.77 2.128s-1.516 3.352-1.516 5.8v11.216h-3.522v-22h3.523v4.533h.087c.5-1.547 1.268-2.754 2.3-3.62s2.183-1.3 3.458-1.3c.917 0 1.618.1 2.105.3v3.653zm20.89 8.315H378.88c.057 2.45.716 4.34 1.977 5.672 1.26 1.332 2.993 1.998 5.2 1.998 2.477 0 4.754-.816 6.83-2.45v3.31c-1.933 1.403-4.49 2.105-7.67 2.105-3.107 0-5.55-1-7.325-2.997-1.776-1.998-2.664-4.81-2.664-8.433 0-3.423.97-6.213 2.91-8.368 1.94-2.155 4.352-3.233 7.23-3.233s5.106.93 6.682 2.792c1.575 1.862 2.363 4.447 2.363 7.756v1.847zm-3.61-2.987c-.014-2.034-.504-3.616-1.47-4.748s-2.31-1.697-4.03-1.697c-1.66 0-3.07.595-4.23 1.783s-1.877 2.743-2.15 4.662h11.88zM431.5 62h-1v74h1V62zm83.592 54.095h-1.842l-7.165-24.235c-.36-1.243-.562-2.253-.606-3.032h-.09c-.046.66-.278 1.655-.697 2.987l-7.637 24.28h-1.842l-9.568-32.21h2.493l7.344 25.81c.33 1.167.562 2.118.696 2.852h.09c.09-.554.352-1.505.786-2.853l7.95-25.808h1.124l7.3 25.808c.344 1.198.576 2.15.696 2.853h.09c.075-.42.194-.898.36-1.438l7.546-27.224h2.403l-9.433 32.21zM529.537 87.3c-.45 0-.846-.165-1.19-.494-.345-.33-.517-.75-.517-1.258 0-.494.176-.895.528-1.202.352-.307.745-.46 1.18-.46.463 0 .87.15 1.223.45.353.3.53.703.53 1.212 0 .48-.173.89-.518 1.235-.344.345-.756.517-1.235.517zm-1.01 28.795v-23h2.065v23h-2.066zm24.238 0v-13.387c0-5.525-1.992-8.288-5.975-8.288-2.216 0-4.036.813-5.458 2.437-1.423 1.625-2.134 3.635-2.134 6.03v13.208h-2.066v-23h2.066v4.178h.09c1.677-3.16 4.297-4.74 7.86-4.74 2.486 0 4.388.83 5.706 2.483 1.317 1.655 1.977 4.017 1.977 7.086v13.993h-2.065zm24.485 0v-4.178h-.09c-.748 1.453-1.855 2.605-3.324 3.46-1.467.853-3.122 1.28-4.963 1.28-2.83 0-5.14-1.034-6.93-3.1-1.79-2.067-2.683-4.92-2.683-8.56 0-3.712.977-6.718 2.93-9.017 1.955-2.298 4.49-3.448 7.604-3.448 3.445 0 5.9 1.415 7.367 4.245h.09V82.044h2.067v34.05h-2.067zm0-13.993c0-2.14-.678-3.957-2.03-5.447-1.356-1.49-3.18-2.235-5.47-2.235-2.412 0-4.403.925-5.976 2.774-1.572 1.85-2.358 4.39-2.358 7.625 0 3.174.708 5.625 2.123 7.355s3.237 2.594 5.468 2.594c2.62 0 4.65-.813 6.086-2.438 1.438-1.625 2.156-3.605 2.156-5.94v-4.29zm17.838 14.554c-3.354 0-6.01-1.104-7.962-3.313-1.955-2.208-2.932-5.08-2.932-8.614 0-3.82 1.02-6.807 3.066-8.963 2.043-2.156 4.735-3.234 8.074-3.234 3.28 0 5.87 1.07 7.77 3.212 1.902 2.142 2.854 5.106 2.854 8.895 0 3.58-.97 6.477-2.91 8.692-1.937 2.216-4.59 3.324-7.96 3.324zm.157-22.236c-2.71 0-4.87.914-6.48 2.74-1.61 1.827-2.414 4.365-2.414 7.614 0 3.01.787 5.428 2.36 7.255s3.72 2.74 6.445 2.74c2.77 0 4.904-.9 6.4-2.696s2.247-4.29 2.247-7.48c0-3.278-.745-5.794-2.235-7.546-1.49-1.752-3.596-2.628-6.322-2.628zm35.087 21.675H628.4l-5.01-17.34c-.134-.48-.254-1.123-.358-1.932h-.112c-.03.345-.18.974-.45 1.887l-5.614 17.385h-1.932l-6.94-23h2.29l5.347 18.35c.136.48.24 1.124.315 1.933h.18c.03-.434.172-1.078.427-1.932l5.84-18.35h1.415l5.21 18.35c.12.435.226 1.078.315 1.932h.18c0-.434.127-1.078.382-1.932l5.458-18.35h2.134l-7.144 23zm9.616-1.01v-2.494c.778.675 1.722 1.207 2.83 1.596 1.108.39 2.066.584 2.875.584 3.608 0 5.413-1.475 5.413-4.425 0-1.018-.396-1.887-1.19-2.605s-2.08-1.46-3.863-2.224c-2.2-.958-3.747-1.95-4.638-2.976-.892-1.025-1.337-2.272-1.337-3.74 0-1.872.715-3.384 2.146-4.537 1.43-1.153 3.192-1.73 5.29-1.73 1.976 0 3.668.405 5.075 1.214v2.336c-1.708-1.108-3.475-1.662-5.302-1.662-1.513 0-2.732.394-3.66 1.18s-1.394 1.808-1.394 3.066c0 1.093.292 1.98.876 2.662.584.682 1.872 1.464 3.863 2.347 2.396 1.078 4.043 2.078 4.94 3s1.35 2.144 1.35 3.67c0 1.828-.687 3.336-2.056 4.527-1.37 1.19-3.26 1.786-5.672 1.786-2.215-.002-4.064-.526-5.547-1.574zm80.185 1.01v-32.21h2.224v30.19h12.915v2.02h-15.14zM740.935 87.3c-.45 0-.846-.165-1.19-.494-.345-.33-.517-.75-.517-1.258 0-.494.176-.895.528-1.202.352-.307.744-.46 1.18-.46.463 0 .87.15 1.223.45.352.3.527.703.527 1.212 0 .48-.172.89-.517 1.235-.345.345-.756.517-1.235.517zm-1.01 28.795v-23h2.065v23h-2.066zm24.237 0v-13.387c0-5.525-1.99-8.288-5.975-8.288-2.216 0-4.035.813-5.458 2.437-1.424 1.625-2.135 3.635-2.135 6.03v13.208h-2.066v-23h2.065v4.178h.09c1.677-3.16 4.298-4.74 7.86-4.74 2.486 0 4.39.83 5.706 2.483 1.318 1.655 1.978 4.017 1.978 7.086v13.993h-2.066zm23.34 0v-4.178h-.09c-1.603 3.16-4.073 4.74-7.412 4.74-5.436 0-8.153-3.422-8.153-10.266V93.096h2.09v12.78c0 3.115.512 5.376 1.538 6.783 1.025 1.408 2.64 2.11 4.84 2.11 2.142 0 3.875-.785 5.2-2.357 1.325-1.57 1.987-3.667 1.987-6.288V93.095h2.066v23h-2.066zm15.727-11.276l7.5 11.274h-2.627l-6.064-9.703h-.09l-.81 1.28c-.104.18-.232.383-.382.607l-5.076 7.816h-2.516l7.682-11.23-7.547-11.77h2.427l5.12 8.243c.66 1.063 1.057 1.722 1.19 1.977h.09l1.147-1.887 5.346-8.333h2.426l-7.817 11.726zm85.655 11.836c-4.552 0-8.18-1.512-10.883-4.537-2.702-3.025-4.054-6.956-4.054-11.793 0-5.136 1.39-9.25 4.167-12.342 2.777-3.092 6.57-4.638 11.376-4.638 4.344 0 7.858 1.486 10.547 4.458 2.688 2.973 4.03 6.87 4.03 11.69 0 5.332-1.377 9.524-4.132 12.58s-6.438 4.58-11.05 4.58zm.224-31.288c-3.744 0-6.825 1.355-9.243 4.065-2.42 2.71-3.628 6.26-3.628 10.646 0 4.432 1.145 7.96 3.436 10.59s5.346 3.94 9.164 3.94c3.983 0 7.135-1.298 9.456-3.896 2.32-2.598 3.48-6.218 3.48-10.86 0-4.552-1.134-8.104-3.4-10.658-2.27-2.55-5.358-3.828-9.267-3.828zm19.7 29.58v-2.537c2.307 1.47 4.643 2.202 7.01 2.202 2.515 0 4.424-.52 5.727-1.56s1.954-2.498 1.954-4.37c0-1.647-.437-2.96-1.312-3.942-.877-.98-2.774-2.317-5.694-4.01-3.265-1.9-5.33-3.492-6.2-4.772s-1.302-2.76-1.302-4.436c0-2.276.884-4.208 2.65-5.795 1.767-1.587 4.125-2.38 7.075-2.38 1.917 0 3.833.32 5.75.965v2.336c-1.887-.854-3.9-1.28-6.042-1.28-2.187 0-3.92.554-5.2 1.662-1.28 1.108-1.92 2.516-1.92 4.223 0 1.647.438 2.958 1.314 3.93.874.975 2.765 2.3 5.67 3.977 3.01 1.707 5.013 3.223 6.01 4.548.994 1.325 1.492 2.85 1.492 4.57 0 2.472-.857 4.486-2.57 6.043-1.716 1.56-4.138 2.337-7.268 2.337-1.108 0-2.385-.172-3.83-.517-1.445-.345-2.55-.742-3.313-1.19zm40.5 1.147l-7.41-12.286c-.465-.765-.862-1.513-1.19-2.247h-.113c-.404.824-.83 1.572-1.28 2.246l-7.547 12.285h-2.673l10.175-16.24-9.568-15.97h2.673l7.21 12.107c.374.63.764 1.348 1.168 2.156h.09l1.19-2.156 7.165-12.106h2.583l-9.658 15.925 9.883 16.285h-2.697z"/></svg>