<svg xmlns="http://www.w3.org/2000/svg" viewBox="0 0 1140 360"><path fill="#68217A" d="M0 0h1140v360H0V0z"/><path fill="#E44D26" d="M625.457 132.8l-5.803-65.083h63.762l-5.81 65.074-26.11 7.24"/><path fill="#F16529" d="M651.535 134.497l21.1-5.85 4.963-55.608h-26.063"/><path fill="#EBEBEB" d="M651.535 97.178h-10.562l-.73-8.174h11.292V81.02h-20.017l.192 2.143 1.962 21.997h17.863M651.535 117.91l-.035.008-8.89-2.4-.568-6.367h-8.013l1.117 12.535 16.352 4.54.035-.01"/><path d="M625.587 50.03h4.057v4.008h3.71V50.03h4.058v12.137h-4.057v-4.064h-3.71v4.064h-4.058V50.03zm17.158 4.025h-3.57V50.03h11.2v4.025h-3.573v8.112h-4.057v-8.112zm9.407-4.025h4.23l2.602 4.264 2.6-4.264h4.23v12.137h-4.04V56.15l-2.79 4.316h-.07l-2.794-4.315v6.017h-3.97V50.03zm15.682 0h4.058v8.125h5.705v4.012h-9.762V50.03z"/><path fill="#fff" d="M651.508 97.178v7.982h9.83l-.928 10.352-8.902 2.403v8.305l16.364-4.535.12-1.35 1.876-21.014.194-2.142h-2.15M651.508 81.02v7.984h19.281l.16-1.795.363-4.047.19-2.142"/><path d="M777.75 55.803v-4.147h-9.888v12.12h9.888v-4.145h-5.742v-3.827M791.785 51.656h-9.89v4.257l4.128 3.718h-4.127v4.147h9.89V59.74l-3.752-3.937h3.75M806.138 51.656h-9.888v4.257l3.967 3.718h-3.967v4.147h9.888V59.74l-3.91-3.937h3.91"/><path fill="#0071BC" d="M760.908 134.424l-5.805-65.115h63.794l-5.812 65.103-26.124 7.243"/><path fill="#29ABE2" d="M787.054 136.117l21.083-5.8 4.94-55.585h-26.023"/><path fill="#B3B3B3" d="M768.392 98.655l.7 7.974 17.962-7.975v-7.987"/><path fill="#E6E6E6" d="M806.948 82.142l-19.894 8.526v7.987l19.208-8.54M787.054 119.52l-.062.01-8.908-2.394-.582-6.36h-8.017l1.118 12.53 16.387 4.538.064-.015"/><path fill="#fff" d="M787.054 98.655v7.974h9.753l-.887 10.425-8.866 2.47v8.31l16.332-4.537 2.15-24.643"/><path fill="#E6E6E6" d="M787.054 98.655h-18.662l.7 7.974h17.962M787.054 90.116v-7.974h-20.08l.708 7.974"/><path fill="#fff" d="M787.054 82.142V90.116h19.208l.686-7.974"/><path fill="#F0DB4F" d="M882.25 64.25h70v70h-70z"/><path fill="#353630" d="M929.272 118.938c1.41 2.302 3.244 3.994 6.49 3.994 2.725 0 4.466-1.362 4.466-3.244 0-2.256-1.79-3.054-4.79-4.367l-1.643-.705c-4.747-2.022-7.9-4.556-7.9-9.91 0-4.934 3.76-8.69 9.633-8.69 4.182 0 7.19 1.456 9.356 5.267l-5.122 3.29c-1.128-2.023-2.344-2.82-4.233-2.82-1.928 0-3.15 1.222-3.15 2.82 0 1.972 1.223 2.77 4.045 3.993l1.644.704c5.588 2.396 8.743 4.84 8.743 10.332 0 5.922-4.652 9.167-10.9 9.167-6.11 0-10.056-2.912-11.987-6.728l5.346-3.104zm-23.236.57c1.033 1.833 1.973 3.383 4.233 3.383 2.16 0 3.523-.845 3.523-4.132V96.39h6.578v22.457c0 6.81-3.992 9.91-9.82 9.91-5.268 0-8.318-2.725-9.87-6.007l5.356-3.242z"/><path d="M296.374 83.453c0 .708-.246 1.296-.737 1.763-.494.47-1.076.704-1.752.704-.693 0-1.277-.227-1.752-.68-.477-.453-.715-1.05-.715-1.787 0-.66.234-1.234.703-1.717.47-.484 1.058-.727 1.766-.727.706 0 1.3.238 1.775.714.476.477.714 1.054.714 1.73zm177.29 0c0 .708-.245 1.296-.737 1.763-.494.47-1.076.704-1.752.704-.693 0-1.277-.227-1.752-.68-.477-.453-.715-1.05-.715-1.787 0-.66.234-1.234.703-1.717.47-.484 1.058-.727 1.766-.727.706 0 1.3.238 1.775.714.476.477.714 1.054.714 1.73zm-184.79-1.697l-12.216 33.052h-4.24l-12.01-33.052h4.31l9.843 28.212h.093l10.072-28.212h4.15zm6.822 33.052h-3.78V91.206h3.78v23.602zm19.173-6.316c0 2.044-.79 3.703-2.363 4.978-1.575 1.276-3.67 1.913-6.28 1.913-2.23 0-4.18-.476-5.855-1.43V109.9c1.86 1.506 3.903 2.258 6.13 2.258 2.997 0 4.495-1.098 4.495-3.296 0-.89-.292-1.617-.876-2.178-.583-.56-1.912-1.317-3.987-2.27-2.09-.89-3.565-1.848-4.425-2.87-.86-1.022-1.29-2.378-1.29-4.068 0-1.95.783-3.58 2.35-4.886s3.557-1.96 5.97-1.96c1.86 0 3.542.37 5.048 1.107v3.803c-1.537-1.12-3.32-1.682-5.347-1.682-1.245 0-2.248.308-3.01.922-.76.614-1.14 1.406-1.14 2.374 0 1.045.292 1.848.876 2.408.584.56 1.79 1.226 3.62 1.994 2.242.953 3.817 1.95 4.724 2.996.906 1.046 1.36 2.36 1.36 3.942zm23.04 6.316h-3.78v-3.734h-.092c-1.567 2.873-3.987 4.31-7.26 4.31-5.64 0-8.46-3.357-8.46-10.072V91.206h3.78v13.507c0 4.964 1.906 7.444 5.717 7.444 1.875 0 3.396-.68 4.564-2.04 1.167-1.36 1.75-3.13 1.75-5.313V91.206h3.78v23.602zm22.716 0h-3.78v-3.688h-.092c-1.644 2.843-4.064 4.264-7.26 4.264-2.274 0-4.095-.618-5.462-1.855-1.368-1.238-2.05-2.9-2.05-4.99 0-4.395 2.596-6.962 7.79-7.7l7.076-.99c0-3.995-1.62-5.993-4.863-5.993-2.843 0-5.41.96-7.698 2.88v-3.87c.692-.523 1.875-1.027 3.55-1.51 1.674-.485 3.164-.727 4.47-.727 5.548 0 8.322 2.943 8.322 8.828v15.35zm-3.78-11.94l-5.716.807c-1.952.276-3.32.74-4.103 1.394-.784.652-1.176 1.71-1.176 3.17 0 1.182.423 2.13 1.27 2.845.844.714 1.927 1.07 3.25 1.07 1.874 0 3.422-.66 4.643-1.98 1.222-1.322 1.832-2.974 1.832-4.957v-2.35zm13.13 11.94h-3.78V79.866h3.78v34.942zm29.875-8.344c0 2.78-.982 4.964-2.95 6.546-1.966 1.583-4.64 2.374-8.02 2.374-1.23 0-2.616-.204-4.16-.61-1.544-.408-2.64-.834-3.284-1.28v-4.587c.937.845 2.17 1.552 3.7 2.12s2.953.854 4.275.854c4.242 0 6.362-1.65 6.362-4.955 0-1.383-.453-2.57-1.36-3.56-.907-.992-2.766-2.295-5.578-3.908-2.72-1.536-4.625-2.996-5.716-4.38-1.09-1.382-1.637-3.064-1.637-5.047 0-2.612.977-4.736 2.928-6.373 1.95-1.637 4.472-2.455 7.56-2.455 2.965 0 5.132.392 6.5 1.176v4.333c-1.72-1.35-3.957-2.027-6.707-2.027-1.828 0-3.322.457-4.482 1.37-1.16.915-1.74 2.125-1.74 3.63 0 1.092.173 1.968.52 2.628.345.662.93 1.315 1.75 1.96.823.646 2.21 1.514 4.16 2.604 2.92 1.63 4.964 3.166 6.132 4.61 1.167 1.446 1.75 3.105 1.75 4.98zm15.152 8.113c-.907.507-2.09.76-3.55.76-4.117 0-6.176-2.32-6.176-6.96V94.41h-4.057v-3.204h4.056v-5.762l3.78-1.22v6.982h5.946v3.204h-5.946v13.322c0 1.583.27 2.71.807 3.377.538.667 1.437 1.002 2.697 1.002.937 0 1.752-.254 2.443-.76v3.225zm22.793.23h-3.78v-3.733h-.092c-1.567 2.873-3.987 4.31-7.26 4.31-5.64 0-8.46-3.357-8.46-10.072V91.206h3.78v13.507c0 4.964 1.906 7.444 5.717 7.444 1.874 0 3.396-.68 4.563-2.04 1.168-1.36 1.752-3.13 1.752-5.313V91.206h3.78v23.602zm25.87 0h-3.78v-4.01h-.09c-1.753 3.058-4.457 4.587-8.114 4.587-2.98 0-5.354-1.07-7.12-3.215-1.768-2.144-2.652-5.006-2.652-8.587 0-3.902.98-7.037 2.94-9.404 1.958-2.367 4.582-3.55 7.87-3.55 3.227 0 5.585 1.276 7.076 3.826h.092v-14.59h3.78v34.942zm-3.78-10.67v-3.48c0-1.952-.65-3.573-1.947-4.864-1.3-1.29-2.878-1.936-4.737-1.936-2.273 0-4.078.84-5.415 2.524s-2.005 4.016-2.005 6.996c0 2.705.63 4.844 1.89 6.42 1.26 1.574 2.958 2.362 5.094 2.362 2.074 0 3.78-.752 5.117-2.258 1.338-1.508 2.006-3.428 2.006-5.764zm13.283 10.67h-3.78v-23.6h3.78v23.6zm27.536-11.892c0 3.75-1.064 6.765-3.192 9.047-2.128 2.282-4.982 3.423-8.563 3.423-3.49 0-6.274-1.11-8.356-3.33-2.082-2.22-3.123-5.143-3.123-8.77 0-3.903 1.07-6.987 3.205-9.254 2.135-2.265 5.078-3.4 8.828-3.4 3.503 0 6.246 1.096 8.228 3.286 1.983 2.188 2.974 5.188 2.974 9zm-3.872.138c0-2.965-.657-5.24-1.97-6.823-1.315-1.582-3.193-2.374-5.636-2.374-2.428 0-4.35.81-5.762 2.432-1.414 1.62-2.12 3.906-2.12 6.857 0 2.828.71 5.036 2.132 6.626 1.42 1.59 3.338 2.386 5.75 2.386 2.46 0 4.342-.784 5.648-2.35 1.304-1.567 1.958-3.818 1.958-6.753zm-266.807-32.32L208.16 92.6 194.212 81.75l-5.51 2.754v27.547l5.51 2.755 13.946-10.848 21.865 21.866 13.774-5.51V76.243l-13.775-5.51zm-35.812 35.81V90.017l8.265 8.265-8.265 8.264zm21.25-8.262l14.562-11.325v22.65l-14.56-11.324zM548.5 61h1v74h-1z" fill="#fff"/></svg>